PathFileType	4	(X/Y/Z)	C:\Users\Basilio\Documents\Thesis Gigler\squatting_fais\c3dfiles\040\SLS_pre_back2\markers_experimental.trc
DataRate	CameraRate	NumFrames	NumMarkers	Units	OrigDataRate	OrigDataStartFrame	OrigNumFrames
200.000000	200.000000	4	63	mm	200.000000	729	1459
Frame#	Time	FHD			LBHD			RBHD			C7			T10			CLAV			LSHO			LUUPA			LMUPA			LDUPA			LLEP			LMEP			LRAD			LUL			LRFIN			RSHO			RUPA1			RMUPA			RDUPA			RLEP			RMEP			RRAD			RUL			RUFIN			LASI			RASI			USACR			LSACR			RSACR			LTHI1			LTHI2			LTHI3			LTHI4			LLFC			LMFC			LTIB1			LTIB2			LTIB3			LTIB4			LLMAL			LMMAL			LHEE			LMT1			LMT2			LMT5			RTHI			RTHI2			RTHI3			RTHI4			RLFC			RMFC			RTIB1			RTIB2			RTIB3			RTIB4			RLMAL			RMMAL			RHEE			RMT1			RMT2			RMT5			*61			*62			
		X1	Y1	Z1	X2	Y2	Z2	X3	Y3	Z3	X4	Y4	Z4	X5	Y5	Z5	X6	Y6	Z6	X7	Y7	Z7	X8	Y8	Z8	X9	Y9	Z9	X10	Y10	Z10	X11	Y11	Z11	X12	Y12	Z12	X13	Y13	Z13	X14	Y14	Z14	X15	Y15	Z15	X16	Y16	Z16	X17	Y17	Z17	X18	Y18	Z18	X19	Y19	Z19	X20	Y20	Z20	X21	Y21	Z21	X22	Y22	Z22	X23	Y23	Z23	X24	Y24	Z24	X25	Y25	Z25	X26	Y26	Z26	X27	Y27	Z27	X28	Y28	Z28	X29	Y29	Z29	X30	Y30	Z30	X31	Y31	Z31	X32	Y32	Z32	X33	Y33	Z33	X34	Y34	Z34	X35	Y35	Z35	X36	Y36	Z36	X37	Y37	Z37	X38	Y38	Z38	X39	Y39	Z39	X40	Y40	Z40	X41	Y41	Z41	X42	Y42	Z42	X43	Y43	Z43	X44	Y44	Z44	X45	Y45	Z45	X46	Y46	Z46	X47	Y47	Z47	X48	Y48	Z48	X49	Y49	Z49	X50	Y50	Z50	X51	Y51	Z51	X52	Y52	Z52	X53	Y53	Z53	X54	Y54	Z54	X55	Y55	Z55	X56	Y56	Z56	X57	Y57	Z57	X58	Y58	Z58	X59	Y59	Z59	X60	Y60	Z60	X61	Y61	Z61	X62	Y62	Z62	X63	Y63	Z63	

730	3.645	32.30067825317384	1445.029663085938	-1236.13818359375	-94.25186920166017	1398.674072265625	-1276.421020507813	-150.3714447021485	1368.112060546875	-1143.849365234375	-174.2274627685547	1289.114624023438	-1187.386596679688	-386.3755187988282	1071.682373046875	-1154.5576171875	-92.9782180786133	1171.836181640625	-1192.427978515625	-112.9209899902344	1260.863403320313	-1319.759887695313	24.11677742004395	1203.3125	-1412.431762695313	57.08530807495119	1208.340576171875	-1375.957885742188	88.87246704101564	1180.821411132813	-1421.5556640625	140.9758911132813	1146.037231445313	-1428.023681640625	123.7900619506836	1089.55859375	-1397.57373046875	412.0336914062501	1115.132934570313	-1319.30126953125	422.9314575195314	1125.9501953125	-1394.260864257813	496.1348266601564	1126.089477539063	-1305.416748046875	-84.4310760498047	1251.106323242188	-1065.172119140625	54.89619827270509	1170.070678710938	-990.1684570312502	84.92517089843751	1185.208862304688	-1025.586547851563	119.6227111816407	1142.7158203125	-997.7409667968752	178.1070709228516	1122.204956054688	-1013.333923339844	154.55908203125	1064.754028320313	-1055.267211914063	422.5682983398439	1122.259033203125	-1179.986938476563	440.7688293457032	1107.039184570313	-1107.950561523438	515.2970581054689	1127.09375	-1191.898559570313	-340.8330993652344	848.006286621094	-1239.921264648438	-364.1356201171876	833.5349121093752	-1020.752075195313	-492.7713928222657	967.0088500976565	-1141.728149414063	-516.3235473632814	945.792175292969	-1172.997192382813	-521.4511108398439	943.207702636719	-1117.649780273438	-333.6773376464844	646.0740356445314	-1300.66796875	-252.2544097900391	620.4075927734376	-1295.30029296875	-220.2230987548829	654.7401733398439	-1290.81298828125	-232.3961334228516	567.6058349609376	-1274.005981445313	-140.4368896484375	489.9599914550782	-1242.039306640625	-167.8804779052735	486.1193237304689	-1124.249633789063	-175.8818817138672	281.7395935058594	-1178.726318359375	-248.0621795654297	269.7974548339844	-1230.789428710938	-213.9612884521485	250.3171844482422	-1207.4990234375	-247.2894897460938	179.5558624267578	-1168.935913085938	-343.7017517089844	124.8911209106446	-1195.629516601563	-316.7854309082032	133.597900390625	-1108.149169921875	-416.111297607422	95.21892547607423	-1151.89599609375	-203.4320526123047	52.0429153442383	-1129.58251953125	-201.7834930419922	53.93777465820314	-1175.716918945313	-253.8023681640626	45.38899230957032	-1225.186889648438	-474.3293762207032	592.5698242187501	-965.5242309570315	-454.8758239746095	528.6051025390626	-971.7056274414065	-422.8665771484376	522.4918823242189	-979.9383544921877	-502.3296813964845	461.4024047851564	-981.274108886719	-530.2097167968751	360.0652770996094	-991.8499145507815	-551.7824707031251	363.4889831542969	-1119.39697265625	-695.8818359375001	281.5098876953126	-1005.508178710938	-773.2963867187502	349.3243408203126	-966.3567504882815	-775.8797607421877	303.8503723144532	-979.9800415039065	-825.2298583984377	287.9767761230469	-1009.049987792969	-939.483581542969	333.0737915039063	-973.218688964844	-934.900085449219	325.4267883300782	-1062.832153320313	-985.331481933594	402.9738769531251	-1020.813842773438	-1005.935852050781	185.7742767333985	-1053.895385742188	-1002.795593261719	181.6695709228516	-1012.687377929688	-1025.6474609375	218.6398315429688	-958.1799926757815	nan	nan	nan	nan	nan	nan	
731	3.65	33.18572235107423	1443.203247070313	-1236.167724609375	-93.40565490722658	1396.876342773438	-1276.263061523438	-149.8253173828125	1366.449340820313	-1143.6171875	-172.8672790527344	1287.145629882813	-1187.452270507813	-386.0616455078126	1070.6787109375	-1154.5068359375	-92.96775054931642	1169.7001953125	-1192.267700195313	-112.5933837890625	1259.536743164063	-1319.493530273438	24.92654991149903	1202.045776367188	-1412.049438476563	58.44911956787111	1206.520141601563	-1375.765625	89.88359832763673	1179.323974609375	-1421.383422851563	142.155014038086	1144.227783203125	-1427.786499023438	124.7251434326172	1087.921508789063	-1397.317138671875	412.7102661132814	1113.658813476563	-1318.967651367188	423.3760070800782	1124.429565429688	-1393.79443359375	496.9836425781251	1124.723876953125	-1305.3076171875	-83.74602508544923	1250.055419921875	-1065.239624023438	55.49657440185548	1168.780517578125	-990.0939941406252	85.5337600708008	1183.451538085938	-1025.43017578125	119.7309112548828	1140.769775390625	-998.3911132812502	178.813705444336	1121.265625	-1013.678894042969	155.2639617919922	1063.156616210938	-1055.514892578125	423.2070312500001	1120.685668945313	-1179.761840820313	441.9776611328126	1106.201049804688	-1107.734985351563	516.4991455078126	1125.61328125	-1191.671020507813	-341.8510131835938	848.3021240234377	-1239.241943359375	-364.4490051269532	832.3733520507815	-1020.779174804688	-492.809783935547	966.1636352539065	-1141.602172851563	-516.4713134765626	945.254821777344	-1172.891357421875	-521.2183837890626	942.4379882812502	-1117.221801757813	-333.7694702148438	645.4993896484376	-1300.648803710938	-252.3163604736329	620.1015014648439	-1295.375854492188	-220.0879058837891	654.2164916992189	-1290.718994140625	-232.2956695556641	567.2446899414064	-1274.04296875	-140.4115295410157	489.8655090332032	-1241.986450195313	-167.8011474609375	486.1311340332032	-1124.316284179688	-175.7499084472657	281.5383605957032	-1178.59814453125	-247.9592895507813	269.7477111816407	-1230.732543945313	-214.0586700439454	250.1414794921876	-1207.29052734375	-247.2136383056641	179.463363647461	-1168.781616210938	-343.8024597167969	125.0066909790039	-1195.603637695313	-316.8135986328126	133.6190948486328	-1108.059814453125	-416.0784606933595	95.16578674316408	-1151.859741210938	-203.3609313964844	51.9893035888672	-1129.582397460938	-201.767318725586	53.94207763671876	-1175.590698242188	-253.7063446044922	45.46378707885743	-1225.159912109375	-474.7979736328126	591.6663208007814	-965.6780395507815	-455.4100952148439	527.7466430664064	-971.9827270507815	-423.675018310547	521.3601684570314	-980.7495727539065	-502.8535461425782	460.4152832031251	-981.550476074219	-531.1683349609376	358.9852905273438	-992.0315551757815	-552.8491821289064	362.7994689941407	-1119.75439453125	-697.6075439453126	279.7298889160157	-1007.35107421875	-773.979675292969	348.5835571289063	-966.689636230469	-776.4161376953127	303.1268615722657	-980.4280395507815	-826.491394042969	287.5715637207032	-1008.856811523438	-940.7920532226565	333.0256652832032	-972.8894653320315	-935.721374511719	324.8507080078126	-1062.720336914063	-986.5674438476565	402.7969360351564	-1020.629333496094	-1007.463928222656	185.9996185302735	-1054.272705078125	-1004.064208984375	181.80712890625	-1013.008544921875	-1026.283203125	217.9224853515626	-958.2542114257815	nan	nan	nan	nan	nan	nan	
732	3.655	33.40201568603516	1441.390747070313	-1235.978759765625	-92.71230316162111	1395.166381835938	-1276.126586914063	-148.8033142089844	1364.61962890625	-1143.640502929688	-172.6721801757813	1286.095092773438	-1187.196899414063	-385.5323791503907	1069.970825195313	-1154.18408203125	-92.53269958496095	1168.0751953125	-1192.15869140625	-111.7741775512696	1257.915161132813	-1319.296508789063	26.15668487548829	1200.303100585938	-1411.956420898438	58.60355758666994	1205.12646484375	-1375.506469726563	90.55947113037111	1177.784912109375	-1421.13818359375	142.9646759033203	1142.665893554688	-1427.672241210938	125.7456970214844	1086.035400390625	-1397.003540039063	413.3262329101564	1112.435668945313	-1318.889282226563	424.1016235351564	1122.888916015625	-1393.5732421875	497.7300415039064	1123.4189453125	-1305.130737304688	-83.17824554443361	1248.294189453125	-1065.216430664063	55.96926879882814	1167.47509765625	-989.9534301757815	86.15348052978517	1182.368041992188	-1025.439697265625	120.962516784668	1140.233642578125	-997.5809326171877	179.7877044677735	1119.768920898438	-1013.210021972656	155.6878051757813	1061.689086914063	-1055.206787109375	424.5854492187501	1119.626831054688	-1180.215454101563	442.1741333007814	1104.425048828125	-1106.995727539063	517.2630615234376	1123.969360351563	-1191.263427734375	-342.2933044433594	847.3535156250002	-1238.965209960938	-364.9748535156251	831.4528808593752	-1020.839294433594	-492.8435058593751	965.224548339844	-1141.581298828125	-516.6774902343751	944.3319091796877	-1172.796752929688	-521.6574096679689	941.7457275390627	-1117.44775390625	-333.7857360839844	644.9925537109376	-1300.731689453125	-252.4320831298829	619.7647705078126	-1295.352661132813	-220.2176971435547	653.9162597656251	-1290.716552734375	-232.0788116455079	566.9798583984376	-1273.978149414063	-140.2525482177735	490.2011108398439	-1241.906372070313	-167.4551696777344	485.7946777343751	-1124.460327148438	-175.7015075683594	281.4823608398438	-1178.567749023438	-247.7767028808594	269.6431274414063	-1230.625244140625	-213.7127685546876	250.1388397216797	-1207.32275390625	-247.3183135986329	179.029541015625	-1168.212524414063	-343.6826782226563	124.9342422485352	-1195.55224609375	-316.7918395996094	133.5640869140625	-1108.014038085938	-416.1653442382814	95.20521545410158	-1151.82080078125	-203.3810119628907	52.06826400756837	-1129.505615234375	-201.7326965332032	53.94967651367189	-1175.6044921875	-253.6949005126954	45.50335311889649	-1225.135375976563	-475.0571289062501	590.8175048828126	-966.021179199219	-456.027313232422	526.5615234375001	-972.3108520507815	-424.3115539550782	520.1866455078126	-981.3410644531252	-503.756805419922	459.2076721191407	-981.9849243164065	-531.7199096679689	358.2839965820313	-992.2363891601565	-554.0681762695314	361.8667907714844	-1120.447631835938	-697.5568237304689	280.2672424316407	-1006.185913085938	-774.6890258789065	347.6860351562501	-966.913024902344	-777.6323852539065	302.4952087402344	-980.3572998046877	-827.3776855468752	286.9811401367188	-1008.930541992188	-941.619323730469	332.5745544433594	-972.7979125976565	-936.850280761719	324.4806518554688	-1062.838989257813	-987.2075805664065	402.2126464843751	-1020.468872070313	-1008.542846679688	185.2486419677735	-1054.175048828125	-1004.989074707031	180.7692108154297	-1013.27001953125	-1026.73388671875	217.7546386718751	-958.1433105468752	nan	nan	nan	nan	nan	nan	
733	3.66	34.64595413208009	1439.553466796875	-1235.9873046875	-92.04193115234376	1393.40771484375	-1275.884765625	-148.2706451416016	1362.884521484375	-1143.302124023438	-171.5673522949219	1284.221923828125	-1187.21875	-385.5919189453126	1068.60693359375	-1154.26171875	-92.08354949951173	1166.260986328125	-1192.012451171875	-110.7352752685547	1256.021850585938	-1319.035522460938	26.58514022827149	1198.996337890625	-1411.666015625	59.58143234252931	1203.729248046875	-1375.540405273438	91.2738494873047	1176.272827148438	-1420.853393554688	143.3815002441407	1141.190673828125	-1427.41552734375	126.4424285888672	1084.5146484375	-1396.985961914063	413.7538452148439	1110.868896484375	-1318.747802734375	424.9952087402345	1121.336303710938	-1393.556884765625	498.6826171875001	1122.183837890625	-1304.895751953125	-82.25728607177736	1247.019897460938	-1065.190673828125	57.17567443847658	1166.329223632813	-989.7969970703127	86.45111083984376	1181.00390625	-1025.338745117188	121.5999984741211	1138.852294921875	-997.3612060546877	180.3899383544922	1118.742065429688	-1013.336486816406	156.172836303711	1060.370483398438	-1054.659423828125	425.3704833984376	1118.17822265625	-1179.845458984375	443.0449523925782	1103.121215820313	-1107.0947265625	517.9182739257814	1123.0927734375	-1191.150390625	-341.8841552734376	845.3674316406252	-1239.5771484375	-365.1888427734376	830.173278808594	-1020.836120605469	-492.7901000976564	964.1768188476565	-1141.376586914063	-516.8764038085939	943.513610839844	-1172.702392578125	-521.8658447265626	940.8247070312502	-1117.39208984375	-333.8220825195313	644.3886108398439	-1300.781982421875	-252.5531616210938	619.3394165039064	-1295.300415039063	-220.5245056152344	653.6314697265626	-1290.747680664063	-232.0155792236329	566.6442871093751	-1273.907958984375	-140.0655822753907	490.0338134765626	-1241.890625	-167.2098999023438	485.2960205078126	-1124.652099609375	-175.5583648681641	281.2914733886719	-1178.484619140625	-247.6922912597657	269.5602722167969	-1230.598876953125	-213.4953613281251	250.0353088378907	-1207.334594726563	-246.980209350586	178.3689727783203	-1169.042236328125	-343.7545776367188	124.9943771362305	-1195.526611328125	-316.8118591308594	133.6192779541016	-1107.917724609375	-416.1744079589845	95.09390258789064	-1151.779663085938	-203.3811950683594	52.06050491333009	-1129.510986328125	-201.7642669677735	54.00343704223634	-1175.6162109375	-253.6968994140626	45.65995407104493	-1225.10595703125	-475.8847961425782	589.8007202148439	-966.2195434570315	-456.7726440429689	525.5134277343751	-972.6329345703127	-425.1715393066407	519.4132080078126	-981.3946533203127	-504.6020507812501	458.3750610351564	-982.3946533203127	-533.1940307617189	357.2567138671876	-992.762634277344	-554.2429199218751	360.9002075195313	-1120.614501953125	-698.9235229492189	279.3314819335938	-1006.357543945313	-775.993835449219	346.9661560058594	-967.2430419921877	-778.221130371094	301.6473388671876	-980.8347778320315	-828.426452636719	286.5372314453126	-1009.060546875	-942.3948364257815	331.9378051757813	-972.952087402344	-937.4087524414065	323.3233032226563	-1062.821533203125	-988.0023193359377	401.8214416503907	-1020.371337890625	-1009.598571777344	184.8912048339844	-1054.260864257813	-1006.058837890625	180.1611785888672	-1013.231140136719	-1028.069213867188	217.5902099609376	-958.1188964843752	nan	nan	nan	nan	nan	nan	
